<?xml version="1.0" standalone="no"?>
<!DOCTYPE svg PUBLIC "-//W3C//DTD SVG 20010904//EN"
 "http://www.w3.org/TR/2001/REC-SVG-20010904/DTD/svg10.dtd">
<svg version="1.0" xmlns="http://www.w3.org/2000/svg"
 width="255.000000pt" height="256.000000pt" viewBox="0 0 255.000000 256.000000"
 preserveAspectRatio="xMidYMid meet">

<g transform="translate(0.000000,256.000000) scale(0.100000,-0.100000)"
fill="#000000" stroke="none">
<path d="M1192 2471 c-9 -5 -15 -33 -17 -75 l-3 -66 -75 -73 c-84 -82 -101
-118 -101 -214 0 -50 7 -75 32 -124 l32 -62 -27 -35 c-106 -132 -126 -203 -83
-287 23 -45 16 -58 -45 -91 -33 -17 -46 -34 -27 -34 21 0 108 68 155 122 l52
59 7 -47 c13 -90 75 -139 164 -130 67 6 120 34 172 90 23 25 44 46 46 46 2 0
6 -30 9 -67 6 -75 14 -103 29 -103 6 0 7 7 4 15 -3 9 0 17 7 19 120 35 191 82
204 134 3 14 19 37 35 50 45 38 119 204 118 265 -1 34 -16 38 -61 13 -33 -19
-178 -56 -216 -56 -2 0 5 13 17 29 34 48 50 109 50 186 0 70 2 76 45 141 27
40 43 74 40 84 -13 40 -105 57 -195 37 -48 -12 -69 -13 -85 -4 -11 6 -47 18
-79 27 -51 14 -61 21 -69 46 -14 43 -45 82 -77 99 -33 17 -40 18 -58 6z m72
-41 c33 -30 60 -82 49 -94 -4 -3 -19 -6 -35 -6 -57 0 -26 -15 35 -17 75 -2
166 -34 212 -74 l33 -30 61 21 c58 19 111 26 111 14 0 -3 -18 -35 -40 -71 -37
-61 -40 -73 -40 -137 0 -98 -14 -141 -66 -196 -53 -57 -93 -77 -122 -61 -31
16 -68 13 -112 -9 -63 -32 -110 -25 -110 17 0 14 -13 37 -29 54 -25 24 -38 29
-80 29 -42 0 -53 4 -70 26 -23 30 -51 113 -51 154 0 82 49 162 140 230 31 24
34 31 37 90 3 36 6 71 8 78 7 20 32 14 69 -18z m431 -149 c16 -7 9 -11 -33
-20 -30 -6 -63 -16 -74 -22 -15 -8 -24 -7 -39 7 -11 10 -16 21 -12 25 18 16
124 23 158 10z m165 -433 c0 -28 -23 -57 -69 -88 -19 -13 -29 -26 -23 -28 6
-2 25 6 42 18 16 12 30 17 30 12 0 -19 -43 -63 -86 -88 -55 -32 -58 -52 -4
-24 22 11 40 16 40 11 0 -20 -62 -70 -115 -92 -30 -12 -55 -26 -55 -31 0 -11
5 -10 47 7 20 8 38 13 40 11 9 -8 -17 -45 -47 -66 -37 -26 -141 -63 -151 -53
-12 14 -19 102 -9 108 6 4 9 49 7 110 l-3 104 46 20 c25 11 88 29 141 40 53
10 109 26 125 34 39 22 44 21 44 -5z m-776 -10 c-4 -6 -10 -25 -14 -42 -6 -26
-8 -28 -15 -13 -9 21 9 67 25 67 6 0 8 -5 4 -12z m116 -8 c11 -11 20 -31 20
-45 0 -22 -3 -25 -25 -19 -14 3 -25 2 -25 -4 0 -5 11 -13 25 -16 33 -8 55 -53
62 -131 3 -36 10 -65 16 -65 6 0 7 21 3 56 -4 35 -2 61 4 69 17 20 48 6 59
-26 7 -21 16 -29 34 -29 16 0 34 -12 50 -33 l26 -34 -30 -36 c-40 -49 -120
-87 -182 -87 -44 0 -54 4 -88 39 -26 26 -39 48 -40 67 0 16 -2 70 -3 119 -2
50 -6 105 -11 123 -6 25 -3 37 10 52 23 26 70 25 95 0z m-152 -70 c7 -11 18
-20 26 -20 38 0 24 -99 -22 -158 -52 -65 -61 -70 -83 -43 -37 45 -17 160 39
224 19 22 24 21 40 -3z m419 -12 c17 -16 23 -32 23 -66 0 -43 -1 -44 -18 -29
-10 10 -26 17 -34 17 -9 0 -23 11 -32 25 -9 14 -23 25 -30 25 -21 0 -27 28 -8
39 29 17 74 12 99 -11z m-197 -27 c5 -11 6 -22 1 -25 -4 -3 -13 6 -19 19 -14
30 2 34 18 6z m84 -6 c14 -13 20 -27 15 -30 -5 -4 -9 -11 -9 -17 0 -6 6 -5 16
3 13 11 17 10 25 -4 6 -9 17 -17 24 -17 8 0 15 -5 15 -11 0 -5 4 -8 9 -4 15 9
24 -15 11 -30 -10 -13 -15 -12 -29 6 -10 12 -28 22 -41 23 -14 0 -29 10 -35
22 -6 12 -16 28 -23 36 -6 8 -8 18 -4 23 4 4 -3 4 -15 1 -13 -4 -23 -3 -23 3
0 5 8 12 18 14 9 3 18 5 19 6 1 0 13 -10 27 -24z m136 -125 c0 -11 -4 -20 -10
-20 -5 0 -10 9 -10 20 0 11 5 20 10 20 6 0 10 -9 10 -20z"/>
<path d="M1325 2270 c-13 -14 -22 -17 -29 -10 -17 17 -26 11 -26 -15 0 -18 -4
-23 -15 -19 -18 7 -19 0 -5 -26 6 -11 28 -25 50 -31 35 -11 44 -10 86 12 26
14 49 30 52 38 2 7 -13 2 -34 -13 -40 -27 -96 -34 -124 -16 -11 7 -6 10 22 10
25 0 47 8 68 26 41 35 32 41 -15 10 -32 -22 -40 -24 -59 -13 l-21 12 21 3 c23
3 61 38 52 47 -3 3 -13 -4 -23 -15z"/>
<path d="M1597 2170 c3 -11 9 -20 13 -20 4 0 10 -10 13 -22 4 -12 9 -20 11
-17 10 10 -15 79 -29 79 -8 0 -11 -7 -8 -20z"/>
<path d="M1173 2098 c-22 -28 -23 -64 -2 -82 25 -21 55 -17 53 7 -1 9 2 17 7
17 10 0 12 31 3 54 -7 19 -47 21 -61 4z"/>
<path d="M1053 2004 c-14 -36 50 -80 84 -58 25 16 26 31 4 53 -26 26 -79 28
-88 5z"/>
<path d="M1402 2010 c-50 -11 -48 -18 7 -21 28 -2 51 -1 51 2 0 16 -28 25 -58
19z"/>
<path d="M1262 1980 c3 -21 -1 -25 -21 -22 -15 2 -21 0 -17 -7 4 -6 18 -11 31
-11 13 0 27 -4 30 -10 3 -5 16 -10 28 -9 21 0 21 1 -3 10 -23 10 -24 11 -7 23
22 17 22 27 1 19 -11 -4 -22 1 -31 13 -14 18 -14 18 -11 -6z"/>
<path d="M1386 1924 c-12 -11 -13 -20 -6 -35 19 -34 93 -39 114 -7 26 42 -71
80 -108 42z"/>
<path d="M1685 1780 c-3 -5 1 -10 9 -10 29 0 17 -20 -29 -48 -50 -30 -61 -51
-15 -27 54 28 33 -14 -26 -51 -35 -23 -36 -25 -11 -19 15 3 27 1 27 -4 0 -13
-43 -46 -80 -61 -16 -7 -30 -16 -30 -21 0 -11 77 26 103 49 9 8 17 23 17 34 0
10 9 27 20 38 11 11 20 28 20 38 0 11 9 27 20 37 24 22 26 41 4 49 -21 8 -22
8 -29 -4z"/>
<path d="M982 2368 c-13 -15 -19 -28 -13 -28 6 0 17 -12 25 -27 10 -19 15 -22
16 -11 0 9 7 24 16 33 15 14 15 17 1 28 -8 7 -16 17 -18 23 -2 6 -14 -2 -27
-18z"/>
<path d="M782 1596 c-6 -14 -18 -26 -26 -26 -9 0 -5 -10 13 -29 24 -27 27 -27
33 -10 4 11 15 22 24 26 15 5 15 7 -1 15 -9 5 -20 19 -24 30 -7 18 -8 18 -19
-6z"/>
<path d="M1840 1594 c0 -9 -8 -18 -19 -21 -17 -4 -17 -6 5 -28 l24 -24 23 22
22 22 -23 23 c-27 26 -32 27 -32 6z"/>
<path d="M334 1460 c-64 -21 -83 -40 -59 -60 11 -9 25 -8 62 5 73 25 198 31
265 11 69 -20 113 -65 103 -105 -8 -35 -79 -98 -124 -111 -59 -16 -131 -13
-138 7 -16 42 80 68 155 42 31 -11 72 1 72 20 0 17 -86 44 -141 44 -65 0 -118
-26 -137 -68 -16 -35 -15 -49 6 -74 37 -46 155 -46 247 -1 37 19 41 19 53 3
28 -38 7 -99 -52 -151 -43 -38 -86 -51 -192 -59 l-81 -6 -17 154 c-23 202 -26
220 -43 226 -34 13 -36 -13 -13 -204 15 -132 26 -193 37 -205 35 -40 246 -15
325 38 81 52 118 156 84 232 -16 34 -16 40 -2 67 36 69 5 141 -79 184 -69 36
-238 41 -331 11z m86 -209 c-12 -23 -13 -63 -2 -77 4 -5 -1 -1 -10 9 -22 24
-22 36 -2 65 19 27 28 29 14 3z"/>
<path d="M825 1388 c-9 -28 -22 -374 -15 -382 5 -4 63 -15 130 -23 102 -12
125 -13 136 -1 26 26 -1 39 -107 51 l-104 12 4 178 c4 176 3 177 -18 177 -12
0 -23 -6 -26 -12z"/>
<path d="M1796 1378 c-3 -13 -6 -117 -6 -231 l0 -208 23 3 c21 3 22 8 25 91 1
48 6 87 11 87 5 0 72 -34 151 -75 79 -41 148 -75 155 -75 16 0 29 30 18 41
-12 11 -276 149 -285 149 -25 0 7 23 125 90 77 44 133 83 135 93 8 39 -31 27
-161 -47 -73 -42 -135 -76 -138 -76 -3 0 -5 39 -5 88 1 81 0 87 -20 90 -15 2
-23 -4 -28 -20z"/>
<path d="M1541 1369 c-79 -32 -121 -96 -121 -187 0 -108 83 -192 188 -192 72
0 152 43 152 81 0 30 -17 31 -56 4 -47 -32 -75 -39 -118 -31 -129 24 -157 195
-44 267 28 17 43 19 94 14 49 -4 63 -2 67 10 15 36 -97 60 -162 34z m13 -345
c28 -12 44 -23 36 -23 -27 -1 -97 36 -114 60 -24 35 -19 46 6 14 12 -15 44
-38 72 -51z"/>
<path d="M1147 1221 c-55 -82 -96 -154 -92 -160 12 -21 44 -11 61 19 18 29 18
29 93 24 113 -8 119 -10 135 -49 10 -24 22 -35 35 -35 32 0 27 23 -38 192 -45
117 -63 154 -77 156 -14 2 -43 -34 -117 -147z m137 -9 l25 -62 -32 0 c-18 0
-49 3 -69 6 l-37 6 40 60 c23 33 43 58 45 55 2 -2 15 -32 28 -65z"/>
<path d="M1557 1267 c-41 -38 -47 -49 -47 -83 1 -92 107 -139 171 -75 23 24
29 38 29 73 0 28 -7 52 -17 64 -10 11 -23 29 -29 40 -20 35 -56 29 -107 -19z
m83 2 c0 -6 12 -25 26 -42 19 -22 24 -37 19 -56 -7 -31 -40 -61 -66 -61 -17 0
-18 3 -7 22 7 12 19 28 26 36 15 17 15 17 -3 36 -23 22 -45 9 -45 -28 0 -17
-5 -38 -10 -46 -9 -13 -12 -12 -25 4 -25 33 -19 82 13 105 15 11 32 25 37 30
14 14 35 13 35 0z"/>
<path d="M1370 905 c-8 -10 -10 -64 -5 -192 8 -246 11 -265 38 -261 21 3 22 7
19 96 -1 50 -1 92 2 92 2 0 75 -32 162 -71 99 -44 160 -67 166 -61 26 26 -1
46 -141 109 -80 35 -147 65 -149 68 -2 2 52 41 120 86 125 84 140 96 135 114
-9 27 -51 9 -167 -69 l-125 -85 -9 89 c-9 89 -22 114 -46 85z"/>
<path d="M856 893 c-3 -10 -17 -81 -31 -158 -15 -77 -28 -141 -30 -143 -2 -2
-39 57 -84 131 -90 151 -105 168 -125 146 -15 -15 -116 -313 -116 -340 0 -27
28 -31 44 -6 8 12 31 75 52 140 21 64 41 117 44 117 3 0 43 -63 90 -141 93
-155 105 -168 123 -150 14 14 87 389 80 409 -7 18 -41 15 -47 -5z"/>
<path d="M1055 898 c-48 -17 -81 -45 -99 -83 -19 -38 -15 -85 8 -104 10 -9 11
-20 2 -52 -15 -57 12 -104 79 -139 44 -22 61 -25 160 -25 103 0 110 1 110 20
0 18 -8 20 -100 25 -113 7 -170 28 -195 72 -13 25 -13 29 6 55 11 15 40 38 64
51 47 23 124 30 136 11 13 -21 -16 -33 -84 -33 -44 -1 -75 -6 -86 -15 -27 -22
-5 -33 76 -38 48 -3 68 -1 59 5 -11 8 -11 11 0 18 7 4 14 3 17 -4 11 -35 82
19 82 62 0 67 -129 90 -226 41 -62 -31 -64 -31 -64 3 0 72 115 111 236 81 29
-8 49 -8 55 -2 17 17 -2 42 -39 53 -47 13 -158 12 -197 -2z m225 -172 c0 -18
-49 -76 -50 -60 0 6 7 17 15 24 8 7 15 21 15 31 0 11 5 19 10 19 6 0 10 -6 10
-14z m-290 -106 c0 -12 11 -32 25 -46 30 -30 32 -38 5 -24 -32 17 -64 90 -40
90 6 0 10 -9 10 -20z"/>
<path d="M1819 867 c-140 -74 -138 -271 3 -341 59 -30 103 -33 156 -11 125 53
164 213 74 309 -62 66 -156 83 -233 43z m171 -57 c111 -79 52 -253 -85 -253
-148 0 -186 207 -50 269 37 18 98 10 135 -16z m89 -51 c6 -18 6 -29 0 -29 -5
0 -9 6 -9 14 0 8 -11 28 -25 44 -32 38 -32 52 -1 23 14 -13 29 -36 35 -52z"/>
<path d="M755 420 c-3 -5 -1 -10 4 -10 6 0 11 5 11 10 0 6 -2 10 -4 10 -3 0
-8 -4 -11 -10z"/>
<path d="M880 410 c0 -13 -5 -18 -15 -14 -21 9 -45 -14 -45 -42 0 -28 23 -43
56 -36 22 4 24 9 24 58 0 30 -4 54 -10 54 -5 0 -10 -9 -10 -20z m-5 -55 c0
-11 -7 -21 -16 -23 -18 -3 -33 23 -23 39 10 17 39 5 39 -16z"/>
<path d="M1294 413 c-12 -20 -7 -93 7 -93 5 0 9 13 9 29 0 16 6 32 13 34 9 4
8 8 -3 16 -10 7 -11 11 -2 11 6 0 12 5 12 10 0 16 -24 11 -36 -7z"/>
<path d="M1595 413 c-8 -8 -13 -18 -10 -23 3 -5 1 -11 -5 -15 -16 -10 -12 -43
8 -53 9 -5 26 -6 37 -2 11 4 27 5 35 2 12 -4 12 -2 3 8 -6 7 -9 19 -5 28 4 11
1 14 -10 9 -9 -3 -23 2 -32 12 -23 25 -20 34 9 27 14 -4 25 -2 25 3 0 16 -40
19 -55 4z m25 -74 c0 -5 -6 -9 -14 -9 -15 0 -28 24 -19 34 7 7 33 -13 33 -25z"/>
<path d="M472 368 c1 -36 2 -43 5 -20 5 37 10 39 29 15 13 -17 15 -17 29 1 14
19 15 18 15 -12 0 -18 5 -32 10 -32 6 0 10 23 10 50 0 56 -10 62 -35 23 l-17
-26 -17 26 c-23 40 -31 33 -29 -25z"/>
<path d="M1030 399 c-6 -11 -10 -30 -8 -42 3 -24 43 -48 64 -40 21 8 17 20 -7
19 -12 -1 -26 7 -33 17 -15 23 4 52 33 51 11 0 21 3 21 8 0 4 -13 8 -30 8 -19
0 -33 -7 -40 -21z"/>
<path d="M1790 370 l0 -51 38 3 c37 3 37 3 37 48 0 45 0 45 -37 48 l-38 3 0
-51z m53 25 c1 -5 -6 -11 -15 -13 -11 -2 -18 3 -18 13 0 17 30 18 33 0z m7
-50 c0 -8 -9 -15 -20 -15 -11 0 -20 7 -20 15 0 8 9 15 20 15 11 0 20 -7 20
-15z"/>
<path d="M630 384 c-15 -17 -6 -60 14 -67 8 -3 24 -3 35 0 17 4 21 13 21 43 0
34 -2 37 -29 38 -16 0 -35 -6 -41 -14z m48 -26 c-2 -13 -10 -23 -18 -23 -8 0
-16 10 -18 23 -3 17 2 22 18 22 16 0 21 -5 18 -22z"/>
<path d="M750 360 c0 -22 5 -40 10 -40 6 0 10 18 10 40 0 22 -4 40 -10 40 -5
0 -10 -18 -10 -40z"/>
<path d="M1161 387 c-16 -16 -13 -55 5 -65 9 -5 27 -7 40 -4 20 4 24 10 24 42
0 34 -2 37 -29 38 -15 0 -33 -4 -40 -11z m47 -29 c-5 -34 -38 -37 -38 -4 0 20
5 26 21 26 15 0 20 -5 17 -22z"/>
<path d="M1380 385 c-26 -31 8 -83 45 -69 22 9 18 23 -4 17 -10 -3 -22 0 -25
6 -5 7 4 11 23 11 32 0 41 16 19 38 -16 16 -43 15 -58 -3z m43 -12 c-7 -2 -19
-2 -25 0 -7 3 -2 5 12 5 14 0 19 -2 13 -5z"/>
<path d="M1931 387 c-16 -16 -13 -55 5 -65 9 -5 27 -7 40 -4 20 4 24 10 24 42
0 34 -2 37 -29 38 -15 0 -33 -4 -40 -11z m44 -32 c0 -11 -7 -21 -16 -23 -18
-3 -33 23 -23 39 10 17 39 5 39 -16z"/>
<path d="M2050 358 c0 -21 5 -38 10 -38 6 0 10 14 10 30 0 20 5 30 15 30 8 0
15 4 15 9 0 5 -11 8 -25 7 -22 -1 -25 -6 -25 -38z"/>
</g>
</svg>
